<svg class="icon" viewBox="260 220 500 500" version="1.1" xmlns="http://www.w3.org/2000/svg" width="200" height="200"><path d="M279.61893 740.814336c0 0-1.303692-9.275247 2.348488-19.191084 4.202719-11.405771 13.579273-23.827685 16.039301-26.779923 4.596691-5.516644 48.187489-41.632189 70.794369-51.484581 8.30106-3.617387 57.359382-20.030196 71.149457-31.982412s19.181875-35.70827 2.631944-51.337225-46.545082-81.366146-46.545082-81.366146-32.06223-119.980605 36.201503-168.595836c24.594141-18.61701 51.02614-26.891464 72.401983-26.891464 24.823362 0 51.622728 5.52176 66.196655 12.871145 26.431999 13.328563 42.234917 32.414247 55.394634 60.44772 15.859199 33.787524 12.18553 81.496106 5.2864 107.333564-7.186679 26.913976-25.51307 69.421092-51.714825 98.381681-26.352181 29.124318 1.147126 51.947116 8.04421 54.245462 31.674397 10.556427 87.956238 34.82618 116.677373 58.252729 13.922081 11.354606 31.632441 28.748764 38.010709 45.64355 2.694365 7.137561 1.650593 14.242376 2.068102 19.478633L279.61893 740.814336 279.61893 740.814336z" fill="#707070"></path></svg>