<?xml version="1.0" standalone="no"?><!DOCTYPE svg PUBLIC "-//W3C//DTD SVG 1.1//EN" "http://www.w3.org/Graphics/SVG/1.1/DTD/svg11.dtd"><svg t="1666425811597" class="icon" viewBox="0 0 1024 1024" version="1.1" xmlns="http://www.w3.org/2000/svg" p-id="4407" xmlns:xlink="http://www.w3.org/1999/xlink" width="128" height="128"><path d="M195.87072 870.6048L123.22816 190.70976A60.416 60.416 0 0 1 122.88 184.32c0-33.93536 27.99616-61.44 62.50496-61.44h653.2096c2.10944 0 4.21888 0.1024 6.32832 0.3072 34.34496 3.44064 59.35104 33.5872 55.86944 67.33824l-37.0688 359.36256C852.91008 644.66944 763.33056 716.8 656.384 716.8H464.896a81.92 81.92 0 0 0-60.76416 26.97216L282.624 878.16192A70.144 70.144 0 0 1 230.58432 901.12a34.7136 34.7136 0 0 1-34.7136-30.5152zM348.16 286.72a40.96 40.96 0 1 0 0 81.92h327.68a40.96 40.96 0 1 0 0-81.92H348.16z m0 163.84a40.96 40.96 0 1 0 0 81.92h204.8a40.96 40.96 0 1 0 0-81.92H348.16z" p-id="4408" fill="#707070"></path></svg>