<?xml version="1.0" standalone="no"?><!DOCTYPE svg PUBLIC "-//W3C//DTD SVG 1.1//EN" "http://www.w3.org/Graphics/SVG/1.1/DTD/svg11.dtd"><svg t="1666425378706" class="icon" viewBox="0 0 1024 1024" version="1.1" xmlns="http://www.w3.org/2000/svg" p-id="3941" xmlns:xlink="http://www.w3.org/1999/xlink" width="128" height="128"><path d="M667.11552 153.51808l-35.2256 61.60384a20.48 20.48 0 0 0 17.8176 30.63808h22.8352a40.96 40.96 0 0 0 35.57376-20.64384l46.63296-81.59232A40.96 40.96 0 0 1 790.30272 122.88H819.2a81.92 81.92 0 0 1 81.92 81.92v450.56c0 135.72096-110.03904 245.76-245.76 245.76H368.64c-135.72096 0-245.76-110.03904-245.76-245.76V204.8a81.92 81.92 0 0 1 81.92-81.92h75.8784a20.48 20.48 0 0 1 17.79712 30.63808l-35.2256 61.60384a20.48 20.48 0 0 0 17.8176 30.63808h22.8352a40.96 40.96 0 0 0 35.57376-20.64384l46.63296-81.59232A40.96 40.96 0 0 1 421.66272 122.88h43.33568a20.48 20.48 0 0 1 17.79712 30.63808l-35.2256 61.60384a20.48 20.48 0 0 0 17.8176 30.63808h22.8352a40.96 40.96 0 0 0 35.57376-20.64384l46.63296-81.59232A40.96 40.96 0 0 1 605.98272 122.88h43.33568a20.48 20.48 0 0 1 17.79712 30.63808zM389.12 672.48128c0 22.03648 16.09728 30.28992 35.98336 18.39104l194.8672-116.40832c19.8656-11.8784 19.88608-31.1296 0-43.008l-194.8672-116.40832c-19.8656-11.8784-35.98336-3.6864-35.98336 18.39104v239.04256z" p-id="3942" fill="#707070"></path></svg>