<svg version="1.1" xmlns="http://www.w3.org/2000/svg" height="1024" width="1024" viewBox="0 0 1024 1024"><path d="M374.044444 231.111111C285.866667 251.022222 188.444444 267.377778 152.888889 348.444444c-5.688889 70.4 71.822222 54.044444 83.2 107.377778C246.755556 536.177778 42.666667 499.2 42.666667 585.244444c-2.844444 34.844444 64 36.977778 68.266666 195.555556 20.622222 167.822222 307.2 107.377778 386.133334 4.266667 93.866667-90.311111 202.666667 63.288889 383.288889 11.377777 56.177778-17.777778 100.266667-59.022222 100.266666-125.866666-5.688889-105.244444-106.666667-86.044444-169.244444-160.711111-141.511111-135.822222 44.8-146.488889-88.177778-241.777778-100.977778-91.022222-320-44.8-349.155556-36.977778z" fill="#FFA516" opacity=".1"></path><path d="M635.733333 539.022222c0-0.711111 8.533333-61.155556 44.8-91.733333 15.644444-13.511111 25.6-30.577778 29.866667-49.777778 2.133333-9.244444 3.555556-18.488889 3.555556-28.444444h1.422222c0 9.244444-1.422222 19.2-3.555556 28.444444-4.266667 19.2-14.933333 36.977778-30.577778 50.488889-35.555556 30.577778-44.088889 90.311111-44.088888 91.022222h-1.422223z" fill="#DFB143"></path><path d="M737.422222 349.866667c-2.844444 6.4-23.466667 20.622222-23.466666 20.622222s-3.555556-24.177778-0.711112-30.577778c2.844444-6.4 10.666667-9.955556 17.066667-7.111111 6.4 2.844444 9.955556 9.955556 7.111111 17.066667zM740.977778 394.666667c-5.688889 4.266667-30.577778 4.266667-30.577778 4.266666s10.666667-22.044444 16.355556-26.311111c6.4-3.555556 14.222222-2.133333 17.777777 4.266667 3.555556 5.688889 2.133333 13.511111-3.555555 17.777778zM712.533333 455.822222c-7.111111 0-28.444444-11.377778-28.444444-11.377778s19.911111-14.222222 27.022222-14.222222c7.111111-0.711111 13.511111 4.977778 14.222222 12.088889 0 7.111111-5.688889 13.511111-12.8 13.511111zM680.533333 497.777778c-7.111111 1.422222-29.866667-6.4-29.866666-6.4s17.777778-17.066667 24.177777-18.488889c7.111111-1.422222 14.222222 2.844444 15.644445 9.955555 1.422222 6.4-2.844444 13.511111-9.955556 14.933334zM684.8 388.977778c2.844444 6.4 22.755556 21.333333 22.755556 21.333333s4.266667-24.177778 1.422222-30.577778c-2.844444-6.4-10.666667-9.955556-17.066667-7.111111-6.4 2.844444-9.955556 9.955556-7.111111 16.355556zM647.822222 438.755556c4.266667 5.688889 27.733333 13.511111 27.733334 13.511111s-2.844444-24.177778-7.822223-29.866667c-4.266667-5.688889-12.8-6.4-18.488889-2.133333-4.977778 4.266667-6.4 12.088889-1.422222 18.488889 0-0.711111 0-0.711111 0 0zM618.666667 491.377778c3.555556 6.4 24.888889 17.777778 24.888889 17.777778s0.711111-24.177778-2.844445-30.577778c-3.555556-6.4-11.377778-8.533333-17.777778-4.977778-5.688889 3.555556-7.822222 11.377778-4.266666 17.777778z" fill="#FFC448"></path><path d="M330.666667 460.088889s-4.977778 9.244444-6.4 16.355555c-0.711111 3.555556 11.377778 8.533333 15.644444 4.977778 2.844444-2.133333 2.844444-2.844444 2.844445-2.844444l-1.422223-18.488889h-10.666666zM320.711111 306.488889l4.977778 76.8 0.711111 18.488889 4.266667 58.311111H341.333333l2.844445-76.8 4.977778-76.8z" fill="#F1B18C"></path><path d="M348.444444 306.488889l4.977778 76.8-2.844444 49.777778 9.955555 2.133333 11.377778-51.911111 4.977778-76.8zM360.533333 435.2c-1.422222 6.4 2.844444 14.933333 0 18.488889-0.711111 2.844444-7.822222 4.977778-11.377777 2.133333-3.555556-2.133333-2.133333-8.533333-2.133334-8.533333l3.555556-13.511111 9.955555 1.422222z" fill="#F1B18C"></path><path d="M360.533333 435.2c-1.422222 6.4 2.844444 14.933333 0 18.488889-0.711111 2.844444-7.822222 4.977778-11.377777 2.133333-3.555556-2.133333-2.133333-8.533333-2.133334-8.533333l3.555556-13.511111 9.955555 1.422222z" fill="#E7ECF2"></path><path d="M320.711111 304.355556H376.888889v1.422222c0 22.044444-2.133333 49.777778-2.133333 55.466666-0.711111 9.955556-1.422222 17.777778-2.844445 19.911112-2.133333 9.955556-4.266667 29.866667-9.244444 48.355555 0 2.844444-6.4 2.844444-12.088889 1.422222 0.711111-19.911111 2.133333-43.377778 2.133333-51.2l-4.266667-57.6c-2.844444 52.622222-7.111111 110.933333-6.4 130.844445h-13.511111c-1.422222-24.177778-4.977778-56.177778-4.266666-66.844445L320 305.777778l0.711111-1.422222z" fill="#E7ECF2"></path><path d="M353.422222 379.733333c-0.711111 7.111111-2.133333 31.288889-2.133333 51.2 5.688889 2.133333 12.088889 1.422222 12.088889-1.422222 5.688889-18.488889 7.822222-40.533333 9.955555-50.488889-2.844444 9.955556-13.511111 9.244444-19.911111 0.711111z" opacity=".1"></path><path d="M329.955556 457.244444v2.844445s-6.4 14.222222-6.4 17.777778c0.711111 4.977778 17.066667 9.244444 19.911111 1.422222l-1.422223-18.488889v-2.844444h-12.088888z" fill="#E7ECF2"></path><path d="M373.333333 215.466667l-25.6-3.555556-25.6 3.555556v51.2l-2.844444 39.822222h56.177778l-2.133334-39.822222z" fill="#F1B18C"></path><path d="M342.755556 204.8h12.088888v14.222222h-12.088888z" fill="#F1B18C"></path><path d="M332.8 186.311111a15.644444 14.933333 0 1 0 31.288889 0 15.644444 14.933333 0 1 0-31.288889 0Z" fill="#2B3D4E"></path><path d="M343.466667 211.2h-0.711111V184.888889h21.333333v5.688889c0 11.377778-9.244444 20.622222-20.622222 20.622222z" fill="#F1B18C"></path><path d="M333.511111 188.444444s1.422222 9.955556 9.244445 15.644445v-15.644445h-9.244445zM364.088889 184.888889s0.711111 5.688889-3.555556 7.111111c2.133333-2.844444 1.422222-7.111111 1.422223-7.111111h2.133333z" fill="#2B3D4E"></path><path d="M359.822222 184.888889s0.711111 6.4-2.844444 7.822222c3.555556-1.422222 5.688889-7.822222 5.688889-7.822222h-2.844445zM359.822222 184.888889s-4.977778 10.666667-17.066666 11.377778c-4.266667-3.555556-4.266667-6.4-4.266667-6.4l3.555555-7.822223 17.777778 2.844445z" fill="#2B3D4E"></path><path d="M347.733333 204.088889l-4.977777-4.977778c-0.711111-1.422222-0.711111-2.844444 0-3.555555 1.422222-0.711111 2.844444-0.711111 3.555555 0l4.977778 4.977777c0.711111 1.422222 0.711111 2.844444 0 3.555556-0.711111 0.711111-2.133333 0.711111-3.555556 0z" fill="#F1B18C"></path><path d="M333.511111 187.022222s0 2.844444-3.555555 0c2.844444 2.133333 3.555556-1.422222 3.555555-1.422222M339.2 170.666667s4.266667 0.711111 2.844444 3.555555c1.422222 0.711111 2.133333 0.711111 2.133334 0.711111s0-4.266667-4.977778-4.266666z" fill="#2B3D4E"></path><path d="M342.755556 172.8s-0.711111-1.422222 0.711111-2.844444c-0.711111 2.133333 0 2.844444-0.711111 2.844444z" fill="#2B3D4E"></path><path d="M337.066667 213.333333s10.666667 5.688889 24.177777 0.711111l5.688889 0.711112s-18.488889 12.8-34.133333-0.711112c4.977778-0.711111 4.266667-0.711111 4.266667-0.711111z" fill="#F5F5F5"></path><path d="M334.222222 214.044444s13.511111 11.377778 30.577778 0l6.4 19.911112 2.133333 20.622222 3.555556 52.622222s-61.155556 9.955556-60.444445 2.133333c1.422222-10.666667 4.266667-55.466667 4.266667-55.466666l0.711111-12.088889 12.8-27.733334z" fill="#236DF2"></path><path d="M329.244444 236.8c0 5.688889-7.822222 29.155556-7.822222 29.155556l-0.711111 5.688888c0-0.711111 7.822222 2.133333 8.533333-34.844444z" opacity=".1"></path><path d="M349.155556 250.311111m-21.333334 0a21.333333 21.333333 0 1 0 42.666667 0 21.333333 21.333333 0 1 0-42.666667 0Z" fill="#FFC166"></path><path d="M320 282.311111l-0.711111 6.4s15.644444 3.555556 29.155555 1.422222c1.422222 1.422222 10.666667 2.844444 13.511112 1.422223-7.111111-8.533333-41.955556-9.244444-41.955556-9.244445z" opacity=".1"></path><path d="M322.133333 215.466667c-3.555556 0.711111-7.111111 5.688889-7.822222 10.666666-2.133333 12.8-7.822222 35.555556-9.244444 49.066667-0.711111 2.844444 1.422222 4.977778 4.266666 5.688889l41.955556 6.4-2.133333-7.822222-32-7.822223 4.977777-23.466666v-32.711111z" fill="#F1B18C"></path><path d="M366.222222 278.755556l-8.533333-0.711112-8.533333 1.422223-0.711112 7.822222s16.355556 9.244444 21.333334-0.711111c0.711111-2.133333-1.422222-4.977778-4.266667-4.266667-7.822222 0.711111-7.111111-0.711111-1.422222-1.422222 4.266667 0 2.844444-1.422222 2.133333-2.133333z" fill="#F1B18C"></path><path d="M347.733333 278.044444c-2.133333 0-3.555556-0.711111-5.688889-0.711111-7.111111-3.555556-14.933333-5.688889-22.755555-7.111111 3.555556-4.266667 9.955556-34.133333 15.644444-56.888889l-13.511111 2.133334c-9.244444 5.688889-8.533333 28.444444-16.355555 61.155555 0 0 0.711111 4.977778 4.977777 5.688889 21.333333 4.266667 31.288889 5.688889 32.711112 4.266667 1.422222 0.711111 7.111111 1.422222 7.111111 0.711111l-2.133334-9.244445z" fill="#236DF2"></path><path d="M373.333333 215.466667c3.555556 0.711111 7.111111 5.688889 7.822223 10.666666l7.822222 49.777778c0 2.133333-1.422222 4.266667-3.555556 3.555556l-35.555555-7.111111-1.422223-6.4 29.866667 4.266666-4.266667-17.066666-0.711111-37.688889zM348.444444 265.955556l-7.111111-2.133334-9.244444-0.711111s-1.422222 1.422222 2.844444 2.133333c-3.555556 0.711111-4.266667 1.422222-4.977777 3.555556 0 12.8 19.2 4.266667 19.911111 3.555556l-1.422223-6.4z" fill="#F1B18C"></path><path d="M365.511111 214.044444l8.533333 1.422223s5.688889 0 8.533334 13.511111c2.844444 13.511111 7.822222 47.644444 7.822222 47.644444s-0.711111 5.688889-6.4 4.266667l-33.422222-7.111111 1.422222-7.822222 25.6 2.844444-3.555556-12.8-8.533333-41.955556z" fill="#236DF2"></path><path d="M330.666667 663.466667c-0.711111 0-0.711111 0 0 0-1.422222 0-2.133333-1.422222-1.422223-2.133334l70.4-334.933333c0-0.711111 1.422222-1.422222 2.133334-1.422222 0.711111 0 1.422222 1.422222 1.422222 2.133333l-70.4 334.933333c-0.711111 0.711111-1.422222 1.422222-2.133333 1.422223zM278.755556 663.466667c-0.711111 0-0.711111 0 0 0-1.422222 0-2.133333-1.422222-1.422223-2.133334l70.4-334.933333c0-0.711111 1.422222-1.422222 2.133334-1.422222 0.711111 0 1.422222 1.422222 1.422222 2.133333l-70.4 334.933333c-0.711111 0.711111-1.422222 1.422222-2.133333 1.422223z" fill="#777777"></path><path d="M345.6 340.622222h51.911111v3.555556h-51.911111zM339.2 369.066667H391.111111v3.555555h-51.911111zM332.8 396.8h51.911111v3.555556h-51.911111zM327.822222 425.244444h51.911111v3.555556h-51.911111zM347.022222 451.555556c0 1.422222 0.711111 2.844444 1.422222 3.555555h-25.6v-3.555555h24.177778zM374.755556 451.555556v3.555555h-14.222223c0.711111-0.711111 0.711111-0.711111 0.711111-1.422222 0.711111-0.711111 0.711111-1.422222 0.711112-2.133333h12.8zM328.533333 481.422222h-11.377777v-3.555555h7.111111c0.711111 1.422222 2.133333 2.844444 4.266666 3.555555zM369.066667 477.866667v3.555555H341.333333c0.711111-0.711111 2.133333-1.422222 2.133334-2.844444v-0.711111h25.6zM310.755556 504.177778H362.666667v3.555555h-51.911111zM305.066667 530.488889h51.911111v3.555555h-51.911111zM300.088889 557.511111h51.911111v3.555556h-51.911111zM295.111111 584.533333h51.911111v3.555556h-51.911111zM288 612.266667h51.911111v3.555555h-51.911111z" fill="#777777"></path><path d="M648.533333 329.955556h4.977778c0.711111 0 2.133333 0.711111 2.133333 2.133333v65.422222c0 0.711111-0.711111 2.133333-2.133333 2.133333h-4.977778c-0.711111 0-2.133333-0.711111-2.133333-2.133333v-65.422222c0-1.422222 1.422222-2.133333 2.133333-2.133333zM370.488889 275.911111h1.422222c0.711111 0 2.133333 0.711111 2.133333 2.133333v19.2c0 0.711111-0.711111 2.133333-2.133333 2.133334h-1.422222c-0.711111 0-2.133333-0.711111-2.133333-2.133334V277.333333c0-0.711111 0.711111-1.422222 2.133333-1.422222zM370.488889 317.155556h1.422222c0.711111 0 2.133333 0.711111 2.133333 2.133333V355.555556c0 0.711111-0.711111 2.133333-2.133333 2.133333h-1.422222c-0.711111 0-2.133333-0.711111-2.133333-2.133333v-36.266667c0-1.422222 0.711111-2.133333 2.133333-2.133333zM370.488889 370.488889h1.422222c0.711111 0 2.133333 0.711111 2.133333 2.133333v36.266667c0 0.711111-0.711111 2.133333-2.133333 2.133333h-1.422222c-0.711111 0-2.133333-0.711111-2.133333-2.133333v-36.266667c0-1.422222 0.711111-2.133333 2.133333-2.133333z" fill="#E5E7EB"></path><path d="M401.777778 200.533333h219.022222c17.066667 0 30.577778 13.511111 30.577778 30.577778V739.555556c0 17.066667-13.511111 30.577778-30.577778 30.577777H401.777778c-17.066667 0-30.577778-13.511111-30.577778-30.577777V231.111111c0-17.066667 13.511111-30.577778 30.577778-30.577778z" fill="#FFFFFF"></path><path d="M487.111111 217.6h33.422222c1.422222 0 2.844444 1.422222 2.844445 2.844444v2.133334c0 1.422222-1.422222 2.844444-2.844445 2.844444h-33.422222c-1.422222 0-2.844444-1.422222-2.844444-2.844444V220.444444c0-1.422222 1.422222-2.844444 2.844444-2.844444z" fill="#E5E7EB"></path><path d="M534.044444 221.866667m-4.266666 0a4.266667 4.266667 0 1 0 8.533333 0 4.266667 4.266667 0 1 0-8.533333 0Z" fill="#E5E7EB"></path><path d="M611.555556 215.466667h-32v3.555555c0 9.955556-8.533333 18.488889-18.488889 18.488889H459.377778c-9.955556 0-18.488889-8.533333-18.488889-18.488889v-3.555555h-29.866667c-12.088889 0-22.044444 9.955556-22.044444 22.044444V732.444444c0 12.088889 9.955556 22.044444 22.044444 22.044445H611.555556c12.088889 0 22.044444-9.955556 22.044444-22.044445V237.511111c0-12.088889-9.955556-22.044444-22.044444-22.044444z" fill="#F2EFEB"></path><path d="M618.666667 655.644444m-21.333334 0a21.333333 21.333333 0 1 0 42.666667 0 21.333333 21.333333 0 1 0-42.666667 0Z" fill="#FFC166"></path><path d="M636.444444 733.155556m-10.666666 0a10.666667 10.666667 0 1 0 21.333333 0 10.666667 10.666667 0 1 0-21.333333 0Z" fill="#FFC166"></path><path d="M698.311111 640c2.844444 2.844444 2.133333 8.533333 0.711111 13.511111l-20.622222 46.222222c-0.711111 2.133333-3.555556 2.844444-4.977778 0.711111L647.111111 674.844444l2.133333-6.4 22.755556 19.2 5.688889-16.355555 20.622222-31.288889z" fill="#F1B18C"></path><path d="M649.244444 669.155556l-4.977777-6.4-5.688889-6.4c-0.711111 0-2.844444 0 0 4.266666-3.555556-1.422222-4.977778-2.844444-7.111111-1.422222C625.066667 669.866667 647.111111 675.555556 647.111111 675.555556l2.133333-6.4z" fill="#F1B18C"></path><path d="M809.955556 766.577778l26.311111 2.133333v9.244445l-27.733334 0.711111 1.422223-12.088889z" fill="#F1B18C"></path><path d="M827.733333 770.133333s1.422222 6.4-1.422222 8.533334c-2.844444 2.133333 0.711111 2.133333 0.711111 2.133333 6.4 0.711111 9.955556 2.133333 16.355556 9.955556 2.133333 5.688889 5.688889 4.977778 7.111111 3.555555 1.422222-1.422222-1.422222-12.8-2.844445-15.644444 0-1.422222-3.555556-4.977778-2.133333-7.111111-1.422222-4.266667-1.422222-8.533333-2.844444-8.533334s-1.422222 0-2.844445 0.711111c-2.133333 0.711111-2.844444-0.711111-8.533333 3.555556-2.133333 0-3.555556-2.133333-3.555556 2.844444z" fill="#606E81"></path><path d="M691.911111 729.6l-6.4 11.377778-9.244444-0.711111 5.688889-15.644445zM726.755556 755.911111l-2.133334 26.311111h-9.244444l-0.711111-27.733333 12.088889 1.422222z" fill="#F1B18C"></path><path d="M785.066667 674.844444s13.511111 13.511111 7.822222 33.422223c0 0-13.511111 36.266667-27.733333 51.2 54.755556 0 54.044444 4.977778 54.044444 8.533333v12.8c-1.422222 2.844444-25.6 3.555556-59.022222 2.133333 0 0-12.8 2.133333-18.488889-10.666666 0-9.244444 8.533333-43.377778 11.377778-51.911111 0-1.422222 9.244444-52.622222 32-45.511112zM734.577778 693.333333c4.266667 4.266667 0.711111 69.688889-8.533334 71.822223l-12.8-2.844445c-4.266667 0-3.555556-44.088889-3.555555-77.511111 0.711111-0.711111 5.688889-11.377778 24.888889 8.533333z" fill="#606E81"></path><path d="M734.577778 693.333333c4.266667 4.266667 0.711111 69.688889-8.533334 71.822223l-12.8-2.844445c-4.266667 0-3.555556-44.088889-3.555555-77.511111 0.711111-0.711111 5.688889-11.377778 24.888889 8.533333zM625.777778 794.311111v-56.177778h-14.933334l-14.933333 31.288889h14.933333v24.888889z" opacity=".1"></path><path d="M704.512 634.218667l-7.616 9.386666-11.043556-8.967111 7.623112-9.386666z" fill="#F1B18C"></path><path d="M665.803592 630.54329a14.933333 15.644444 39.074 1 0 19.722124-24.290581 14.933333 15.644444 39.074 1 0-19.722124 24.290581Z" fill="#2B3D4E"></path><path d="M697.6 630.044444l0.711111-0.711111-19.911111-16.355555-13.511111 16.355555 4.266667 3.555556c8.533333 7.111111 21.333333 5.688889 28.444444-2.844445z" fill="#F1B18C"></path><path d="M686.933333 608s6.4 7.111111 6.4 17.066667c-5.688889-4.266667-12.088889-9.955556-12.088889-9.955556l5.688889-7.111111zM664.888889 629.333333s4.266667 4.266667 7.822222 1.422223c-3.555556 0-6.4-2.844444-6.4-2.844445l-1.422222 1.422222z" fill="#2B3D4E"></path><path d="M667.733333 625.777778s4.266667 4.266667 7.822223 2.844444c-3.555556 2.133333-9.244444-0.711111-9.244445-0.711111l1.422222-2.133333zM667.733333 625.777778s11.377778 2.844444 19.2-6.4c0-5.688889-2.133333-7.822222-2.133333-7.822222l-7.822222-2.133334-9.244445 16.355556z" fill="#2B3D4E"></path><path d="M689.777778 628.622222l-0.711111-7.111111c0-1.422222-1.422222-2.844444-2.844445-2.133333-1.422222 0-2.844444 1.422222-2.133333 2.844444l0.711111 7.111111c0 1.422222 1.422222 2.844444 2.844444 2.133334 0.711111 0 2.133333-0.711111 2.133334-2.844445z" fill="#F1B18C"></path><path d="M685.511111 606.577778s2.133333 2.133333 2.133333-2.133334c0 3.555556-3.555556 1.422222-3.555555 1.422223M669.155556 600.888889s-2.133333 3.555556 1.422222 4.266667c0 1.422222-0.711111 2.133333-0.711111 2.133333s-3.555556-2.133333-0.711111-6.4z" fill="#2B3D4E"></path><path d="M668.444444 605.866667s-0.711111-1.422222-2.133333-1.422223c1.422222 0.711111 2.133333 1.422222 2.133333 1.422223z" fill="#2B3D4E"></path><path d="M651.377778 669.155556l19.2 14.933333 17.777778-41.244445c5.688889-6.4 9.244444-27.733333 51.911111-8.533333 14.933333 8.533333 41.955556 28.444444 44.8 40.533333-10.666667 20.622222-23.466667 32-34.844445 34.844445-13.511111-3.555556-33.422222-24.888889-33.422222-24.888889s-22.755556 49.066667-27.733333 49.066667c-5.688889 0-9.955556-4.266667-9.955556-4.266667l10.666667-37.688889s-10.666667 11.377778-14.933334 11.377778-17.066667-7.111111-28.444444-25.6l4.977778-8.533333z" fill="#236DF2"></path><path d="M688.355556 642.844444s12.088889 28.444444 2.133333 49.066667c-0.711111-24.177778-7.111111-37.688889-7.111111-37.688889s2.844444-5.688889 4.977778-11.377778z" opacity=".1"></path><path d="M688.355556 642.844444s1.422222 4.977778 3.555555 12.088889c4.266667-4.266667 7.111111-26.311111 7.111111-25.6-2.133333-0.711111-9.244444 9.955556-10.666666 13.511111z" fill="#F1B18C"></path><path d="M720.355556 652.088889c3.555556 7.111111 5.688889 19.2-2.844445 32 0.711111 0.711111 3.555556 4.266667 4.977778 4.977778 4.266667-2.844444 9.955556-28.444444-2.133333-36.977778z" opacity=".1"></path><path d="M723.2 773.688889s-6.4 0-7.822222-2.844445c-1.422222-2.844444-2.133333 0-2.133334 0-2.844444 6.4-4.266667 9.244444-13.511111 13.511112-6.4 0.711111-5.688889 4.266667-4.977777 5.688888 0.711111 1.422222 12.8 1.422222 15.644444 0.711112 1.422222 0 5.688889-2.133333 7.822222 0 4.266667-0.711111 8.533333 0.711111 9.244445-0.711112 0.711111-1.422222 0-1.422222 0-2.844444 0-2.844444 1.422222-2.844444-1.422223-9.244444-0.711111-2.133333 2.133333-3.555556-2.844444-4.266667z" fill="#606E81"></path><path d="M379.733333 707.555556c11.377778 1.422222 20.622222 9.955556 26.311111 22.755555l-8.533333 7.822222c0.711111 1.422222 1.422222 2.844444 2.133333 4.977778l14.222223-12.8c-5.688889-12.8-14.933333-22.044444-26.311111-22.755555-2.844444-0.711111-4.977778 0-7.822223 0zM381.155556 673.422222h2.133333c19.2 2.133333 35.555556 17.066667 44.088889 38.4l-8.533334 7.822222c0.711111 1.422222 1.422222 2.844444 2.133334 4.977778l14.222222-12.8c-9.244444-21.333333-24.888889-36.266667-44.088889-38.4-3.555556-0.711111-7.111111-0.711111-9.955555 0zM377.6 768.711111c0.711111 0.711111 2.133333 1.422222 3.555556 1.422222 4.266667 0.711111 8.533333-4.266667 9.244444-10.666666 0.711111-6.4-2.133333-12.088889-7.111111-12.088889-1.422222 0-3.555556 0.711111-4.977778 1.422222 2.844444 2.133333 4.266667 6.4 3.555556 10.666667 0 4.266667-2.133333 7.822222-4.266667 9.244444z" opacity=".1"></path><path d="M379.733333 707.555556c-11.377778-1.422222-22.755556 5.688889-30.577777 17.066666l11.377777 15.644445c4.266667-6.4 10.666667-9.955556 17.066667-9.244445 6.4 0.711111 12.088889 5.688889 14.933333 12.8l14.222223-12.8c-6.4-13.511111-15.644444-22.044444-27.022223-23.466666z" fill="#B6D641"></path><path d="M383.288889 673.422222c-19.2-2.133333-38.4 9.244444-51.2 28.444445l11.377778 15.644444c9.955556-14.222222 23.466667-22.044444 37.688889-20.622222 14.222222 1.422222 25.6 12.088889 32.711111 27.733333l14.222222-12.8c-9.955556-21.333333-25.6-36.266667-44.8-38.4zM375.466667 747.377778c-4.266667-0.711111-8.533333 4.266667-9.244445 10.666666-0.711111 6.4 2.133333 12.088889 7.111111 12.088889 4.266667 0.711111 8.533333-4.266667 9.244445-10.666666 0-5.688889-2.844444-11.377778-7.111111-12.088889z" fill="#B6D641"></path><path d="M229.688889 620.088889l-0.711111 2.844444h2.133333z" opacity=".1"></path><path d="M595.911111 369.777778l-0.711111-0.711111-0.711111-0.711111c-19.911111-24.177778-49.777778-39.822222-83.2-39.822223-33.422222 0-63.288889 15.644444-83.2 39.822223-2.844444 2.844444-4.266667 6.4-4.266667 9.955555 0 7.822222 6.4 14.222222 14.222222 14.222222 4.266667 0 8.533333-2.133333 11.377778-5.688889 14.222222-18.488889 36.977778-30.577778 61.866667-30.577777 24.888889 0 47.644444 12.088889 61.866667 30.577777 2.844444 3.555556 6.4 5.688889 11.377777 5.688889 7.822222 0 14.222222-6.4 14.222223-14.222222 0.711111-3.555556-0.711111-6.4-2.844445-8.533333z" fill="#FFA516"></path><path d="M586.666667 379.733333m-5.688889 0a5.688889 5.688889 0 1 0 11.377778 0 5.688889 5.688889 0 1 0-11.377778 0Z" fill="#FFC166"></path><path d="M438.044444 379.733333m-5.688888 0a5.688889 5.688889 0 1 0 11.377777 0 5.688889 5.688889 0 1 0-11.377777 0Z" fill="#FFC166"></path><path d="M600.177778 843.377778c14.933333-4.266667 24.888889-12.8 27.733333-21.333334l-23.466667-2.844444c-1.422222 4.977778-7.111111 9.244444-15.644444 12.088889-8.533333 2.133333-17.777778 2.133333-25.6 0l-9.955556 12.088889c14.933333 4.266667 32 4.266667 46.933334 0zM536.888889 811.377778c7.822222 2.844444 17.777778 2.133333 22.044444-1.422222 4.266667-3.555556 0.711111-8.533333-7.111111-11.377778s-17.777778-2.133333-22.044444 1.422222c-4.266667 3.555556-1.422222 8.533333 7.111111 11.377778z" fill="#FFC166"></path><path d="M366.222222 278.755556l-8.533333-0.711112-8.533333 1.422223-0.711112 7.822222s16.355556 9.244444 21.333334-0.711111c0.711111-2.133333-1.422222-4.977778-4.266667-4.266667-6.4 0.711111-4.266667-0.711111-1.422222-1.422222 4.266667 0 2.844444-1.422222 2.133333-2.133333z" fill="#F1B18C"></path><path d="M603.733333 764.444444h98.133334l-12.8-26.311111H616.533333zM689.422222 794.915556h-72.533333v-29.866667h72.533333z" fill="#ADB6BD"></path><path d="M689.422222 774.528h-72.533333v-9.244444h72.533333z" opacity=".1"></path><path d="M271.644444 813.511111s0 7.822222-1.422222 10.666667c-1.422222 2.844444-2.133333 5.688889 0 7.822222 0.711111 0.711111 2.844444 0.711111 4.266667 0.711111 4.977778-2.133333 7.822222-1.422222 8.533333-1.422222 4.977778 2.133333 10.666667 4.266667 21.333334 2.133333 1.422222 0 2.133333-2.844444-2.844445-4.266666-7.822222-0.711111-6.4-2.844444-16.355555-7.822223-4.266667-2.844444-4.977778-4.977778-4.266667-7.111111l-9.244445-0.711111z" fill="#F9D7D7"></path><path d="M270.222222 821.333333l9.244445 6.4 5.688889 0.711111 6.4-4.266666c1.422222 2.844444 12.088889 2.844444 14.222222 7.822222 2.133333 7.111111-34.133333 0.711111-34.133334 0.711111s-2.133333 0-2.844444-0.711111c-1.422222-3.555556-0.711111-7.111111 1.422222-10.666667z" fill="#E7ECF2"></path><path d="M278.044444 832.711111v1.422222l-9.244444-0.711111v-2.133333l9.244444 1.422222z" fill="#E7ECF2"></path><path d="M278.044444 832.711111v1.422222l-9.244444-0.711111v-2.133333l9.244444 1.422222z" opacity=".1"></path><path d="M305.777778 831.288889c-2.844444-4.977778-13.511111-4.977778-14.222222-7.822222l-6.4 4.266666-5.688889-0.711111-9.244445-6.4c-2.133333 3.555556-2.844444 7.111111-1.422222 9.955556v2.133333l9.244444 0.711111v-1.422222c10.666667 2.844444 29.866667 4.977778 27.733334-0.711111z" opacity=".1"></path><path d="M247.466667 813.511111s0 7.822222-1.422223 10.666667c-1.422222 2.844444-2.133333 5.688889 0 7.822222 0.711111 0.711111 2.844444 0.711111 4.266667 0.711111 4.977778-2.133333 7.822222-1.422222 8.533333-1.422222 4.977778 2.133333 10.666667 4.266667 21.333334 2.133333 1.422222 0 2.133333-2.844444-2.844445-4.266666-7.822222-0.711111-6.4-2.844444-16.355555-7.822223-4.266667-2.844444-4.977778-4.977778-4.266667-7.111111l-9.244444-0.711111z" fill="#F9D7D7"></path><path d="M246.044444 821.333333l9.244445 6.4 5.688889 0.711111 6.4-4.266666c1.422222 2.844444 12.088889 2.844444 14.222222 7.822222 2.133333 7.111111-34.133333 0.711111-34.133333 0.711111s-2.133333 0-2.844445-0.711111c-1.422222-3.555556-0.711111-7.111111 1.422222-10.666667z" fill="#E7ECF2"></path><path d="M254.577778 832.711111v1.422222l-9.244445-0.711111v-2.133333l9.244445 1.422222z" fill="#E7ECF2"></path><path d="M254.577778 832.711111v1.422222l-9.244445-0.711111v-2.133333l9.244445 1.422222z" opacity=".1"></path><path d="M277.333333 587.377778s44.8-27.733333 46.222223-31.288889c1.422222-2.844444 17.777778-20.622222 24.177777-25.6l-5.688889-5.688889c-3.555556 4.266667-27.022222 21.333333-30.577777 27.733333L272.355556 568.888889c-14.222222 8.533333-4.266667 23.466667 4.977777 18.488889z" fill="#F9D7D7"></path><path d="M347.733333 531.2L341.333333 526.222222l1.422223-2.133333c1.422222-2.133333 2.133333-4.977778 4.266666-7.822222 2.844444-3.555556 2.133333-5.688889 4.266667-4.266667 0 0.711111 0.711111 0.711111 0 1.422222-3.555556 4.977778-1.422222 1.422222 0 1.422222 2.844444-1.422222 0.711111-4.266667 6.4 0.711112 7.822222 7.822222-4.977778 9.244444-8.533333 13.511111-0.711111 1.422222-1.422222 2.133333-1.422223 2.133333z" fill="#F9D7D7"></path><path d="M273.777778 579.555556m-8.533334 0a8.533333 8.533333 0 1 0 17.066667 0 8.533333 8.533333 0 1 0-17.066667 0Z" fill="#F9D7D7"></path><path d="M270.222222 567.466667l-9.955555 1.422222-2.133334-17.066667 7.111111-1.422222z" fill="#2B3D4E"></path><path d="M266.666667 533.333333l2.844444 10.666667c0.711111 3.555556-1.422222 7.111111-5.688889 7.822222h-2.133333l-2.133333-17.066666 7.111111-1.422223z" fill="#2B3D4E"></path><path d="M236.887973 536.683743a13.511111 14.933333 82.594 1 0 29.617509-3.849796 13.511111 14.933333 82.594 1 0-29.617509 3.849796Z" fill="#2B3D4E"></path><path d="M248.177778 561.777778l-3.555556-26.311111 21.333334-2.844445 0.711111 4.266667c2.133333 12.8-6.4 23.466667-18.488889 24.888889z" fill="#F9D7D7"></path><path d="M247.274667 555.598222l12.693333-1.649778 1.827556 14.108445-12.693334 1.649778z" fill="#F9D7D7"></path><path d="M250.311111 569.6l-12.088889 2.133333 1.422222-18.488889 9.955556-1.422222z" fill="#2B3D4E"></path><path d="M266.666667 533.333333s0 4.266667-8.533334 7.111111c-5.688889 1.422222-6.4 7.822222-6.4 10.666667 0 1.422222-0.711111 2.133333-2.133333 2.844445l-8.533333 0.711111c-3.555556 0.711111-6.4-2.133333-5.688889-5.688889l0.711111-6.4 0.711111-8.533334 29.866667-0.711111z" fill="#2B3D4E"></path><path d="M252.444444 553.955556l-5.688888-4.977778c-1.422222-0.711111-1.422222-2.844444-0.711112-3.555556 0.711111-1.422222 2.844444-1.422222 3.555556-0.711111l5.688889 4.977778c1.422222 0.711111 1.422222 2.844444 0.711111 3.555555 0 1.422222-2.133333 1.422222-3.555556 0.711112z" fill="#F9D7D7"></path><path d="M234.666667 577.422222m-8.533334 0a8.533333 8.533333 0 1 0 17.066667 0 8.533333 8.533333 0 1 0-17.066667 0Z" fill="#F9D7D7"></path><path d="M288 651.377778s7.111111 34.133333 1.422222 68.977778c-7.111111 101.688889-7.111111 93.866667-7.111111 93.866666 0.711111 1.422222-14.933333 2.844444-12.8 0.711111 0.711111-2.844444-7.822222-162.844444-7.822222-162.844444l26.311111-0.711111z" fill="#236DF2"></path><path d="M288 651.377778s7.111111 34.133333 1.422222 68.977778c-7.111111 101.688889-7.111111 93.866667-7.111111 93.866666 0.711111 1.422222-14.933333 2.844444-12.8 0.711111 0.711111-2.844444-7.822222-162.844444-7.822222-162.844444l26.311111-0.711111z" opacity=".1"></path><path d="M248.177778 651.377778s-7.822222 13.511111-7.111111 49.777778c0.711111 41.955556 3.555556 113.066667 3.555555 113.066666-2.133333 0.711111 10.666667 3.555556 14.222222 0.711111-0.711111-0.711111 14.222222-164.977778 14.222223-164.977777l-24.888889 1.422222z" fill="#236DF2"></path><path d="M233.955556 568.888889s27.022222-7.822222 39.822222-5.688889c-5.688889 21.333333-9.955556 22.044444-9.955556 22.044444L233.955556 568.888889z" fill="#F9D7D7"></path><path d="M226.844444 573.155556s-16.355556 42.666667-17.066666 46.222222c0.711111 3.555556 22.044444 19.911111 27.733333 26.311111l5.688889-5.688889c-4.266667-3.555556-14.222222-16.355556-18.488889-20.622222l18.488889-36.266667c4.977778-14.933333-12.088889-19.2-16.355556-9.955555z" fill="#F9D7D7"></path><path d="M246.044444 565.333333c-8.533333 0.711111-15.644444 2.844444-17.777777 4.977778 4.266667 9.955556 8.533333 17.066667 6.4 29.155556 0 5.688889 2.844444 56.888889 14.222222 54.044444 7.111111 5.688889 39.111111-2.133333 39.111111-2.133333 3.555556 4.266667-6.4-51.2-7.111111-54.044445 0 0-3.555556-7.111111 3.555555-10.666666 4.977778-2.133333 9.244444-5.688889 14.222223-9.955556-2.133333-7.822222 0-12.8-7.111111-15.644444-2.133333-0.711111-10.666667 2.133333-14.933334 2.133333-1.422222 0-2.133333 0-2.844444-0.711111-3.555556 0-4.266667-0.711111-10.666667 0 2.844444 6.4 2.844444 10.666667-2.133333 13.511111-9.244444 1.422222-12.8-4.266667-14.933334-10.666667z" fill="#E7ECF2"></path><path d="M228.266667 571.022222c-4.266667 7.111111-7.822222 17.777778-12.088889 28.444445 0 0 19.911111 7.822222 15.644444 8.533333 5.688889 0.711111 3.555556-7.822222 3.555556-7.822222s6.4-28.444444-7.111111-29.155556z" fill="#E7ECF2"></path><path d="M237.511111 645.688889l4.977778-5.688889 2.133333 1.422222c2.133333 1.422222 4.977778 2.133333 7.822222 4.266667 3.555556 2.844444 5.688889 2.133333 4.266667 4.266667-0.711111 0-0.711111 0.711111-1.422222 0-4.977778-3.555556-1.422222-1.422222-1.422222 0 1.422222 2.844444 4.266667 0.711111-0.711111 6.4-7.822222 7.822222-9.244444-4.977778-13.511112-8.533334l-2.133333-2.133333z" fill="#F9D7D7"></path><path d="M224.711111 619.377778h-14.222222c0.711111 3.555556 22.044444 19.911111 27.733333 26.311111l5.688889-5.688889c-4.977778-3.555556-15.644444-16.355556-19.2-20.622222z" fill="#F9D7D7"></path><path d="M381.155556 512m-28.444445 0a28.444444 28.444444 0 1 0 56.888889 0 28.444444 28.444444 0 1 0-56.888889 0Z" fill="#FFC166"></path><path d="M325.688889 804.266667h-25.6l7.822222 30.577777h35.555556l7.111111-30.577777z" fill="#3F3D56"></path><path d="M325.688889 834.844444h-17.777778l-7.822222-30.577777h25.6z" opacity=".1"></path><path d="M347.733333 790.755556c-0.711111-0.711111-2.133333-0.711111-2.844444 0-4.266667 2.844444-11.377778 7.822222-11.377778 7.822222l12.8-10.666667c0.711111-0.711111 0.711111-1.422222 0.711111-2.133333 0-1.422222-0.711111-2.133333-2.844444-2.844445h-1.422222c-3.555556 2.844444-12.088889 9.955556-12.088889 9.955556l11.377777-12.088889s1.422222-3.555556-1.422222-4.266667c-0.711111 0-1.422222 0-2.133333 0.711111l-7.111111 7.111112 8.533333-9.955556c0-0.711111 0.711111-0.711111 0.711111-1.422222s-0.711111-2.133333-2.133333-2.133334c-0.711111 0-1.422222 0-2.133333 0.711112-2.133333 2.844444-5.688889 7.111111-5.688889 7.111111l7.822222-9.955556v-0.711111c0-0.711111 0-2.844444-2.844445-2.133333-0.711111 0-1.422222 0.711111-1.422222 0.711111-2.133333 2.844444-3.555556 4.977778-3.555555 4.977778l3.555555-7.822223v-0.711111c0-0.711111 0-2.133333-2.844444-2.133333-0.711111 0-1.422222 0.711111-1.422222 0.711111l-2.133334 4.266667v-7.111111c0-0.711111-0.711111-1.422222-2.133333-1.422223-1.422222 0-2.133333 1.422222-2.133333 1.422223v7.111111l-2.133334-4.266667c0-0.711111-0.711111-0.711111-1.422222-0.711111-2.133333 0-2.844444 1.422222-2.844444 2.133333v0.711111l3.555555 7.822223s-1.422222-2.133333-3.555555-4.977778c0-0.711111-0.711111-0.711111-1.422223-0.711111-2.133333-0.711111-2.844444 1.422222-2.844444 2.133333v0.711111l7.822222 9.955556s-3.555556-4.266667-5.688889-7.111111c-0.711111-0.711111-1.422222-0.711111-2.133333-0.711112-1.422222 0-1.422222 1.422222-2.133333 2.133334 0 0.711111 0 0.711111 0.711111 1.422222l8.533333 9.955556-7.111111-7.111112c-0.711111-0.711111-1.422222-0.711111-2.133333-0.711111-2.844444 0.711111-1.422222 4.266667-1.422223 4.266667l11.377778 12.088889s-7.822222-7.111111-12.088889-9.955556h-1.422222c-2.133333 0-2.844444 1.422222-2.844444 2.844445 0 0.711111 0 1.422222 0.711111 2.133333l12.8 10.666667s-7.111111-4.977778-11.377778-7.822222c-0.711111-0.711111-2.133333-0.711111-2.844445 0-1.422222 0.711111-1.422222 1.422222-1.422222 2.844444 0 0.711111 0.711111 2.133333 1.422222 2.133333l12.8 8.533334h18.488889l12.8-8.533334c0.711111-0.711111 1.422222-1.422222 1.422223-2.133333 0-0.711111 0-2.133333-1.422223-2.844444z" fill="#FFC448"></path><path d="M325.688889 758.044444c-1.422222 0-2.133333 1.422222-2.133333 1.422223v7.111111l-2.133334-4.266667c0-0.711111-0.711111-0.711111-1.422222-0.711111-2.133333 0-2.844444 1.422222-2.844444 2.133333v0.711111l3.555555 7.822223s-1.422222-2.133333-3.555555-4.977778c0-0.711111-0.711111-0.711111-1.422223-0.711111-2.133333-0.711111-2.844444 1.422222-2.844444 2.133333v0.711111l7.822222 9.955556s-3.555556-4.266667-5.688889-7.111111c-0.711111-0.711111-1.422222-0.711111-2.133333-0.711111-1.422222 0-1.422222 1.422222-2.133333 2.133333 0 0.711111 0 0.711111 0.711111 1.422222l8.533333 9.955556-7.111111-7.111111c-0.711111-0.711111-1.422222-0.711111-2.133333-0.711112-2.844444 0.711111-1.422222 4.266667-1.422223 4.266667l11.377778 12.088889s-7.822222-7.111111-12.088889-9.955556h-1.422222c-2.133333 0-2.844444 1.422222-2.844444 2.844445 0 0.711111 0 1.422222 0.711111 2.133333l12.8 10.666667s-7.111111-4.977778-11.377778-7.822222c-0.711111-0.711111-2.133333-0.711111-2.844445 0-1.422222 0.711111-1.422222 1.422222-1.422222 2.844444 0 0.711111 0.711111 2.133333 1.422222 2.133333l12.8 8.533334h9.244445v-46.933334z" fill="#F7BE46"></path><path d="M493.511111 512.711111c12.8-14.222222 19.2-34.133333 15.644445-54.044444s-16.355556-36.266667-33.422223-45.511111c-4.266667-2.133333-9.244444-2.844444-13.511111 0-6.4 3.555556-9.244444 12.8-4.977778 19.2 1.422222 2.133333 3.555556 4.266667 5.688889 5.688888 9.244444 4.977778 16.355556 14.222222 18.488889 24.888889 2.133333 10.666667-1.422222 21.333333-8.533333 29.155556-3.555556 4.266667-4.977778 10.666667-1.422222 16.355555 3.555556 6.4 12.8 9.244444 19.2 4.977778 0.711111 0.711111 1.422222 0 2.844444-0.711111z" fill="#FFA516"></path><path d="M468.622222 425.955556m-5.688889 0a5.688889 5.688889 0 1 0 11.377778 0 5.688889 5.688889 0 1 0-11.377778 0Z" fill="#FFC166"></path><path d="M565.333333 507.733333h42.666667V568.888889h-42.666667z" fill="#DAE0F1"></path><path d="M580.266667 507.733333h10.666666v9.955556h-10.666666z" fill="#236DF2"></path><path d="M586.666667 529.777778c-7.822222 0-14.222222 3.555556-18.488889 8.533333l2.844444 2.133333c2.844444-3.555556 9.955556-7.111111 15.644445-7.111111 5.688889 0 12.088889 3.555556 15.644444 7.111111l2.844445-2.133333c-4.977778-4.977778-11.377778-8.533333-18.488889-8.533333z" fill="#FFFFFF"></path><path d="M586.666667 538.311111c-4.266667 0-8.533333 2.133333-11.377778 4.977778l2.844444 2.133333c1.422222-1.422222 5.688889-3.555556 7.822223-3.555555 2.844444 0 6.4 2.133333 7.822222 3.555555l2.844444-2.133333c-1.422222-2.844444-5.688889-4.977778-9.955555-4.977778z" fill="#FFFFFF"></path><path d="M583.822222 551.822222a2.844444 2.844444 0 1 0 5.688889 0 2.844444 2.844444 0 1 0-5.688889 0Z" fill="#FFFFFF"></path></svg>