<svg version="1.1" xmlns="http://www.w3.org/2000/svg" height="989" width="1024" viewBox="0 0 1060 1024"><path d="M464.95149245 894.04546729v-1.43718057 1.43718057z m57.44763448-58.17197338c-31.59754069 0-57.44763449 25.1359744-57.44763448 56.73479281v0.71795143c0 6.46284288 5.0256623 11.48722745 11.48850517 11.48722745 6.46156516 0 11.49233721-5.02438457 11.49233721-11.48722745v-0.71795143c0-18.67440925 15.07954119-34.47317959 34.4667921-34.4731796 19.39236067 0 34.47317959 15.79877036 34.4731796 34.4731796v0.71795143c0 6.46284288 5.02949431 11.48722745 11.4923372 11.48722745 6.46156516 0 11.48722745-5.02438457 11.48722632-11.48722745v-0.71795143c0-30.87958813-25.85392695-56.73479282-57.45274312-56.73479281zM388.8268944 714.12319231c-15.80004807-3.59359146-39.49756416-2.87436231-44.52322645 13.64235946-2.87436231 10.05515662 13.64363721 11.48850517 28.72317839 15.08081891 12.21156638 2.87436231 18.67440925 9.33720519 17.23722865 11.48722745-2.87436231 3.59359146-20.8295424-3.58720398-37.3475419 2.15640975-15.79877036 5.74361374-12.92440803 20.11031325-3.58720285 23.69879382 9.33592747 3.59231374 24.41674524-0.71922915 59.60276651 5.02949433 17.95518009 2.86925141 28.72828814-2.87436231 30.88469788-13.64874696 4.30643314-24.41674524-28.72956587-52.42197219-50.98990023-57.44635676z m214.00454031 58.16558591c2.15640973 10.77438578 12.21156638 16.5179995 30.87958926 13.6436372 35.19113102-5.74361374 50.27194994-1.43207083 59.60787626-5.0256623 9.33720519-3.58848058 12.20645661-18.67313152-3.59231373-23.69879381-15.80004807-5.74361374-33.74884067 1.43718059-37.34243101-2.15513202-2.15513315-2.86925141 5.0256623-9.33720519 17.23595093-12.20645661 15.0808189-3.59231374 31.59881727-5.02949431 28.72445611-15.08081891-5.0256623-16.51672179-28.00522695-17.23595093-44.52322646-13.64746923-22.26161323 5.02949431-55.29633452 33.03472128-50.98990136 58.17069568z m430.16677148-300.18174179l-199.64423054-183.84418247c-6.46156516-6.46156516-15.79877036-9.33592747-25.13086464-9.33592633H235.86102234c-9.33592747 0-17.94879262 3.58720398-24.41674525 9.33592633l-201.07502365 183.84418247c-7.90513323 7.18079431-12.21156638 16.5179995-12.21156636 27.28727551v450.27580474c0 45.24245561 36.62320185 82.58871865 82.58744206 82.58871979h881.87592477c45.2411779 0 82.58744092-37.34626418 82.58744092-82.58871979V499.39431196c0-10.05004686-5.02949431-20.10648007-12.21028864-27.28727553z m-360.50373745-2.87436117c-12.9295178 0-23.70262586 10.77438578-23.70262699 24.41802297 0 67.50662315-57.44763449 124.24141597-125.67348565 124.24141482-68.22202027 0-125.67348679-56.73479282-125.6734868-124.24141482 0-12.92568577-10.77438578-24.41802297-23.69879381-24.41802297H93.6708149L243.04181664 332.7860804h558.71461946l147.94020864 136.44659486H672.49446874z m317.41769158 48.8347682v431.60267322c0 15.80004807-12.21028864 27.29238528-27.29110641 27.29238528H80.74512914c-15.79877036 0-28.72828814-12.21156638-28.72828928-27.29238528V518.06744348h298.74967097c5.74361374 37.34626418 23.69751609 72.53228544 52.4219722 99.10544042 33.03472128 31.59754069 75.40664661 48.11553906 119.92987307 48.11553906 44.5270585 0 86.89898382-17.23595093 119.92987192-48.11553906 28.00905899-27.29110755 46.68346823-61.75917739 52.42708309-99.10544044h294.43684921z m0 0"></path><path d="M464.95149245 894.04546729v-1.43718057 1.43718057z m57.44763448-58.17197338c-31.59754069 0-57.44763449 25.1359744-57.44763448 56.73479281v0.71795143c0 6.46284288 5.0256623 11.48722745 11.48850517 11.48722745 6.46156516 0 11.49233721-5.02438457 11.49233721-11.48722745v-0.71795143c0-18.67440925 15.07954119-34.47317959 34.4667921-34.4731796 19.39236067 0 34.47317959 15.79877036 34.4731796 34.4731796v0.71795143c0 6.46284288 5.02949431 11.48722745 11.4923372 11.48722745 6.46156516 0 11.48722745-5.02438457 11.48722632-11.48722745v-0.71795143c0-30.87958813-25.85392695-56.73479282-57.45274312-56.73479281zM388.8268944 714.12319231c-15.80004807-3.59359146-39.49756416-2.87436231-44.52322645 13.64235946-2.87436231 10.05515662 13.64363721 11.48850517 28.72317839 15.08081891 12.21156638 2.87436231 18.67440925 9.33720519 17.23722865 11.48722745-2.87436231 3.59359146-20.8295424-3.58720398-37.3475419 2.15640975-15.79877036 5.74361374-12.92440803 20.11031325-3.58720285 23.69879382 9.33592747 3.59231374 24.41674524-0.71922915 59.60276651 5.02949433 17.95518009 2.86925141 28.72828814-2.87436231 30.88469788-13.64874696 4.30643314-24.41674524-28.72956587-52.42197219-50.98990023-57.44635676z m214.00454031 58.16558591c2.15640973 10.77438578 12.21156638 16.5179995 30.87958926 13.6436372 35.19113102-5.74361374 50.27194994-1.43207083 59.60787626-5.0256623 9.33720519-3.58848058 12.20645661-18.67313152-3.59231373-23.69879381-15.80004807-5.74361374-33.74884067 1.43718059-37.34243101-2.15513202-2.15513315-2.86925141 5.0256623-9.33720519 17.23595093-12.20645661 15.0808189-3.59231374 31.59881727-5.02949431 28.72445611-15.08081891-5.0256623-16.51672179-28.00522695-17.23595093-44.52322646-13.64746923-22.26161323 5.02949431-55.29633452 33.03472128-50.98990136 58.17069568z m430.16677148-300.18174179l-199.64423054-183.84418247c-6.46156516-6.46156516-15.79877036-9.33592747-25.13086464-9.33592633H235.86102234c-9.33592747 0-17.94879262 3.58720398-24.41674525 9.33592633l-201.07502365 183.84418247c-7.90513323 7.18079431-12.21156638 16.5179995-12.21156636 27.28727551v450.27580474c0 45.24245561 36.62320185 82.58871865 82.58744206 82.58871979h881.87592477c45.2411779 0 82.58744092-37.34626418 82.58744092-82.58871979V499.39431196c0-10.05004686-5.02949431-20.10648007-12.21028864-27.28727553z m-360.50373745-2.87436117c-12.9295178 0-23.70262586 10.77438578-23.70262699 24.41802297 0 67.50662315-57.44763449 124.24141597-125.67348565 124.24141482-68.22202027 0-125.67348679-56.73479282-125.6734868-124.24141482 0-12.92568577-10.77438578-24.41802297-23.69879381-24.41802297H93.6708149L243.04181664 332.7860804h558.71461946l147.94020864 136.44659486H672.49446874z m317.41769158 48.8347682v431.60267322c0 15.80004807-12.21028864 27.29238528-27.29110641 27.29238528H80.74512914c-15.79877036 0-28.72828814-12.21156638-28.72828928-27.29238528V518.06744348h298.74967097c5.74361374 37.34626418 23.69751609 72.53228544 52.4219722 99.10544042 33.03472128 31.59754069 75.40664661 48.11553906 119.92987307 48.11553906 44.5270585 0 86.89898382-17.23595093 119.92987192-48.11553906 28.00905899-27.29110755 46.68346823-61.75917739 52.42708309-99.10544044h294.43684921z m0 0" fill="#1296db"></path><path d="M249.9121808 202.18785449L158.78596797 115.69766854c-9.76005577-9.28738189-10.14458141-24.73228629-0.85847609-34.49745294 9.29249279-9.76133234 24.73739605-10.15096887 34.4974518-0.85847496l91.04700871 86.48507507c9.76516551 9.27205262 10.16502045 24.69651683 0.89807758 34.46296005-9.26694287 9.76005577-24.69651683 10.16502045-34.45784917 0.89807873m251.01354667-38.20090822a24.29793847 24.29793847 0 0 1-7.55126841-17.04177096l-3.28826994-125.58278428c-0.34875619-13.47884032 10.29532557-24.69140707 23.77288932-25.041441 13.47884032-0.35386595 24.6926848 10.29021582 25.04143985 23.76905614l3.21417558 125.58278428a24.36436878 24.36436878 0 0 1-14.44718137 22.87608833 24.36436878 24.36436878 0 0 1-26.66769067-4.56193251m236.21633252 33.7143478a24.38225351 24.38225351 0 0 1-7.58959332-17.04688185 24.39886051 24.39886051 0 0 1 6.6915146-17.41607709l86.49018596-91.19519744c9.28738189-9.76133234 24.73228629-10.15096887 34.4974518-0.85847608 9.76133234 9.28610531 10.14585801 24.73100855 0.85847609 34.49745179l-86.4850762 91.12110309a24.38225351 24.38225351 0 0 1-17.04688185 7.58959218 24.38991872 24.38991872 0 0 1-17.41607708-6.6915146" fill="#1296db"></path></svg>