<?xml version="1.0" standalone="no"?><!DOCTYPE svg PUBLIC "-//W3C//DTD SVG 1.1//EN" "http://www.w3.org/Graphics/SVG/1.1/DTD/svg11.dtd"><svg t="1663806903337" class="icon" viewBox="0 0 1024 1024" version="1.1" xmlns="http://www.w3.org/2000/svg" p-id="2135" xmlns:xlink="http://www.w3.org/1999/xlink" width="128" height="128"><path d="M186.181818 349.090909h46.545455v46.545455H186.181818zM279.272727 349.090909h46.545455v46.545455h-46.545455zM372.363636 349.090909h46.545455v46.545455h-46.545455zM465.454545 349.090909h46.545455v46.545455h-46.545455zM558.545455 349.090909h46.545454v46.545455h-46.545454zM651.636364 349.090909h46.545454v46.545455h-46.545454z" p-id="2136" fill="#ffffff"></path><path d="M721.454545 209.454545H162.909091c-65.163636 0-116.363636 51.2-116.363636 116.363637v325.818182c0 65.163636 51.2 116.363636 116.363636 116.363636h558.545454c65.163636 0 116.363636-51.2 116.363637-116.363636V325.818182c0-65.163636-51.2-116.363636-116.363637-116.363637z m69.818182 442.181819c0 39.563636-30.254545 69.818182-69.818182 69.818181H162.909091c-39.563636 0-69.818182-30.254545-69.818182-69.818181V325.818182c0-39.563636 30.254545-69.818182 69.818182-69.818182h558.545454c39.563636 0 69.818182 30.254545 69.818182 69.818182v325.818182z" p-id="2137" fill="#ffffff"></path></svg>