<svg xmlns="http://www.w3.org/2000/svg" width="18" height="18" viewBox="0 0 20 20" fill="none" class="side-icon"><path fill-rule="evenodd" clip-rule="evenodd" d="M2.625 10a7.375 7.375 0 1 1 13.796 3.63.75.75 0 0 0 1.305.74A8.843 8.843 0 0 0 18.875 10a8.875 8.875 0 1 0-4.707 7.837c.577-.307 1.192-.313 1.621-.039l1.308.834a.75.75 0 0 0 .806-1.264l-1.307-.834c-1-.639-2.213-.51-3.133-.02A7.375 7.375 0 0 1 2.625 10ZM8.75 6.75a1.25 1.25 0 1 0 2.5 0 1.25 1.25 0 0 0-2.5 0Zm0 6.5a1.25 1.25 0 1 0 2.5 0 1.25 1.25 0 0 0-2.5 0Zm-2-2a1.25 1.25 0 1 0 0-2.5 1.25 1.25 0 0 0 0 2.5Zm6.5 0a1.25 1.25 0 1 0 0-2.5 1.25 1.25 0 0 0 0 2.5Z" fill="black"/></svg>