<svg xmlns="http://www.w3.org/2000/svg" width="18" height="18" viewBox="0 0 20 20" fill="none" class="side-icon"><path fill-rule="evenodd" clip-rule="evenodd" d="M14.53.47a.75.75 0 0 1 0 1.06l-2.72 2.72H17c.966 0 1.75.784 1.75 1.75v10.5A1.75 1.75 0 0 1 17 18.25H3a1.75 1.75 0 0 1-1.75-1.75V6c0-.966.784-1.75 1.75-1.75h4.894L5.85 2.581a.75.75 0 0 1 .948-1.162L9.95 3.99l3.52-3.52a.75.75 0 0 1 1.061 0ZM9.997 5.75H17a.25.25 0 0 1 .25.25v10.5a.25.25 0 0 1-.25.25H3a.25.25 0 0 1-.25-.25V6A.25.25 0 0 1 3 5.75h6.997ZM7.5 13.25a.75.75 0 0 0 0 1.5h5a.75.75 0 0 0 0-1.5h-5Z" fill="black"/></svg>