<svg xmlns="http://www.w3.org/2000/svg" width="18" height="18" viewBox="0 0 20 20" fill="none" class="side-icon"><path fill-rule="evenodd" clip-rule="evenodd"  d="M14.53.47a.75.75 0 0 1 0 1.06l-4 4a.75.75 0 0 1-.988.064L5.865 2.756a.75.75 0 0 1 .917-1.188l3.154 2.435L13.47.47a.75.75 0 0 1 1.06 0Z" fill="#FE3355"/><path fill-rule="evenodd" clip-rule="evenodd"  d="M1.35 6.5A2.15 2.15 0 0 1 3.5 4.35h13a2.15 2.15 0 0 1 2.15 2.15V16a2.15 2.15 0 0 1-2.15 2.15h-13A2.15 2.15 0 0 1 1.35 16V6.5Zm5.4 7.5a.75.75 0 0 1 .75-.75h5a.75.75 0 0 1 0 1.5h-5a.75.75 0 0 1-.75-.75Z" fill="#FE3355"/></svg>