<svg xmlns="http://www.w3.org/2000/svg" width="18" height="18" viewBox="0 0 20 20" fill="none" class="side-icon"><path fill-rule="evenodd" clip-rule="evenodd"  d="M10 1.225a8.775 8.775 0 1 0 1.655 17.394 8.668 8.668 0 0 0 2.485-.79c.6-.3 1.221-.304 1.65-.03l1.307.833a.75.75 0 1 0 .806-1.264l-1.307-.834a2.727 2.727 0 0 0-.478-.243A8.775 8.775 0 0 0 10 1.225ZM10 8a1.25 1.25 0 1 1 0-2.5A1.25 1.25 0 0 1 10 8Zm-2 2a1.25 1.25 0 1 1-2.5 0A1.25 1.25 0 0 1 8 10Zm6.5 0a1.25 1.25 0 1 1-2.5 0 1.25 1.25 0 0 1 2.5 0Zm-5.75 3.25a1.25 1.25 0 1 0 2.5 0 1.25 1.25 0 0 0-2.5 0Z" fill="#FE3355"/></svg>