<svg xmlns="http://www.w3.org/2000/svg" width="18" height="18" viewBox="0 0 20 20" fill="none" class="side-icon"><path fill-rule="evenodd" clip-rule="evenodd"  d="M6.842 2.195A8.396 8.396 0 0 1 10 1.582c1.116 0 2.183.218 3.159.613a4.1 4.1 0 0 1 5.127 6.31 8.418 8.418 0 1 1-16.57-.007 4.098 4.098 0 0 1 5.126-6.303Zm-.287 8.785a.65.65 0 0 1 .897.2A3.013 3.013 0 0 0 10 12.584c1.07 0 2.012-.558 2.548-1.402a.65.65 0 1 1 1.097.697A4.313 4.313 0 0 1 10 13.883a4.313 4.313 0 0 1-3.645-2.005.65.65 0 0 1 .2-.898Z" fill="#FE3355"/></svg>