<svg xmlns="http://www.w3.org/2000/svg" width="18" height="18" viewBox="0 0 20 20" fill="none" class="side-icon"><path fill-rule="evenodd" clip-rule="evenodd" d="M10 1.433c-1.109 0-2.17.21-3.145.595a4.248 4.248 0 0 0-5.3 6.518 8.568 8.568 0 1 0 16.89.007 4.25 4.25 0 0 0-5.3-6.525A8.548 8.548 0 0 0 10 1.433ZM7.104 3.66A6.94 6.94 0 0 1 10 3.033a6.94 6.94 0 0 1 2.896.628.8.8 0 0 0 .814-.089 2.65 2.65 0 0 1 3.34 4.112.8.8 0 0 0-.252.778 6.968 6.968 0 1 1-13.594-.006.8.8 0 0 0-.252-.778A2.648 2.648 0 0 1 6.29 3.572a.8.8 0 0 0 .814.089Zm.433 7.466a.75.75 0 1 0-1.267.804A4.413 4.413 0 0 0 10 13.983c1.57 0 2.948-.82 3.73-2.052a.75.75 0 0 0-1.266-.803A2.913 2.913 0 0 1 10 12.482a2.913 2.913 0 0 1-2.463-1.356Z" fill="black"/></svg>