<svg xmlns="http://www.w3.org/2000/svg" width="18" height="18" viewBox="0 0 20 20" fill="none" class="side-icon"><path fill-rule="evenodd" clip-rule="evenodd" d="M18.75 3.709c0-1.668-2.017-2.503-3.196-1.324l-1.132 1.132a7.99 7.99 0 0 0-8.844 0L4.446 2.385C3.266 1.205 1.25 2.041 1.25 3.71v5.79a8.75 8.75 0 0 0 17.5 0V3.71Zm-2.135-.263a.372.372 0 0 1 .635.263v5.79a7.25 7.25 0 1 1-14.5 0V3.71c0-.332.4-.498.635-.263l1.58 1.58c.27.27.699.297 1 .062l.051-.04a6.488 6.488 0 0 1 7.967 0l.056.044a.75.75 0 0 0 .991-.062l1.585-1.584ZM7.72 10.46a.6.6 0 0 1 .48-.96h3.6a.6.6 0 0 1 .48.96l-1.8 2.4a.6.6 0 0 1-.96 0l-1.8-2.4Z" fill="black"/></svg>