<svg xmlns="http://www.w3.org/2000/svg" width="18" height="18" viewBox="0 0 20 20" fill="none" class="side-icon"><path fill-rule="evenodd" clip-rule="evenodd" d="M11.432 4.92c1.71-1.968 4.92-1.38 5.938 1.119.503 1.235.461 2.603-.187 3.69-1.825 3.055-3.813 4.85-7.228 7.172-3.281-2.373-5.366-4.11-7.252-7.143-.662-1.066-.713-2.426-.217-3.661C3.489 3.598 6.744 2.982 8.59 4.94l.45.478c-.5.602-1.023 1.243-1.59 1.948a.75.75 0 1 0 1.17.94 130.65 130.65 0 0 1 1.91-2.332.744.744 0 0 0 .171-.202c.247-.291.489-.574.73-.852Zm-1.416-.654.284-.329c2.501-2.88 7.053-1.914 8.459 1.535.654 1.607.636 3.477-.289 5.026-2.05 3.432-4.316 5.392-8.052 7.9a.747.747 0 0 1-.506.122.747.747 0 0 1-.47-.14c-3.523-2.531-5.896-4.424-8.013-7.83-.953-1.535-.98-3.407-.335-5.012 1.41-3.515 5.99-4.382 8.588-1.626l.334.354Z" fill="black"/></svg>