<svg xmlns="http://www.w3.org/2000/svg" width="18" height="18" viewBox="0 0 20 20" fill="none" class="side-icon"><path fill-rule="evenodd" clip-rule="evenodd" d="M2.625 10a7.375 7.375 0 1 1 14.75 0 7.375 7.375 0 0 1-14.75 0ZM10 1.125a8.875 8.875 0 1 0 0 17.75 8.875 8.875 0 0 0 0-17.75ZM6.77 11.782a.75.75 0 1 0-1.29.764A5.248 5.248 0 0 0 10 15.125a5.248 5.248 0 0 0 4.52-2.579.75.75 0 1 0-1.29-.764A3.748 3.748 0 0 1 10 13.625a3.748 3.748 0 0 1-3.23-1.843Zm-.675-5.937a.75.75 0 0 1 1.06 0l1.5 1.5a.75.75 0 0 1 0 1.06l-1.5 1.5a.75.75 0 0 1-1.06-1.06l.97-.97-.97-.97a.75.75 0 0 1 0-1.06Zm6.75 0a.75.75 0 1 1 1.06 1.06l-.97.97.97.97a.75.75 0 0 1-1.06 1.06l-1.5-1.5a.75.75 0 0 1 0-1.06l1.5-1.5Z" fill="black"/></svg>