<svg xmlns="http://www.w3.org/2000/svg" width="18" height="18" viewBox="0 0 20 20" fill="none" class="side-icon"><path fill-rule="evenodd" clip-rule="evenodd"
d="M17.7219 11.717C16.965 15.5194 13.7553 18.3753 9.91058 18.3753C6.01871 18.3753 2.77751 15.4489 2.07254
11.5766L1.36784 12.4281C-0.753677 10.4909 -0.363266 6.31668 2.23286 3.1796C4.46382 0.483765 7.64348 -0.624329 9.84015 0.346619C12.0368
-0.623138 15.2155 0.485077 17.4459 3.18028C20.042 6.31737 20.4324 10.4916 18.3109 12.4288L17.7219 11.717ZM10.9185 3.49596L13.5792
6.71106L16.0866 9.74094C16.0895 9.82462 16.0909 9.90851 16.0909 9.9926C16.0909 10.897 15.9253 11.7606 15.594 12.5832C15.276 13.3731
14.8279 14.0717 14.2498 14.6789C13.6777 15.2799 13.0231 15.7441 12.286 16.0716C11.5302 16.4074 10.7384 16.5753 9.91058 16.5753C9.08278
16.5753 8.29095 16.4074 7.53513 16.0716C6.79805 15.7441 6.14346 15.2799 5.57135 14.6789C4.9933 14.0717 4.54523 13.3731 4.22714
12.5832C3.8959 11.7606 3.73029 10.897 3.73029 9.9926C3.73029 9.84662 3.7346 9.70166 3.74324 9.55772L6.09959 6.71037L8.73314
3.52808C9.11719 3.44931 9.50966 3.40993 9.91058 3.40993C10.2527 3.40993 10.5887 3.4386 10.9185 3.49596Z" fill="#FE3355"/></svg>