<svg xmlns="http://www.w3.org/2000/svg" width="18" height="18" viewBox="0 0 20 20" fill="none" class="side-icon"><path fill-rule="evenodd" clip-rule="evenodd" d="M17.7219 11.717C16.965 15.5194 13.7553 18.3753 9.91058 18.3753C6.01869 18.3753 2.77751 15.4488 2.07254 11.5765L1.36784 12.4281C-0.753677 10.4909 -0.363266 6.31668 2.23286 3.1796C4.46382 0.483765 7.64349 -0.624329 9.84015 0.346619C12.0368 -0.623138 15.2155 0.485077 17.4459 3.18027C20.042 6.31735 20.4324 10.4916 18.3109 12.4288L17.7219 11.717ZM4.87051 5.59824L7.63828 2.29977C6.8989 1.67935 5.04147 2.65775 3.52292 4.46747C2.00435 6.27722 1.36339 8.27634 2.10275 8.89673L4.87051 5.59824ZM12.2617 2.32889L15.0294 5.62738L17.7972 8.92587C18.5366 8.30545 17.8956 6.30637 16.377 4.49661C14.8585 2.68686 13.0011 1.7085 12.2617 2.32889ZM10.9185 3.49594L13.5792 6.71106L16.0866 9.74091Q16.0909 9.86621 16.0909 9.99258Q16.0909 11.3492 15.594 12.5832Q15.1169 13.7681 14.2498 14.6789Q13.3917 15.5804 12.286 16.0716Q11.1523 16.5753 9.91058 16.5753Q8.66885 16.5753 7.53513 16.0716Q6.4295 15.5804 5.57135 14.6789Q4.70425 13.7681 4.22713 12.5832Q3.73027 11.3492 3.73027 9.99258Q3.73027 9.77356 3.74323 9.55771L6.09959 6.71036L8.73314 3.52808Q9.30919 3.40991 9.91058 3.40991Q10.4238 3.40991 10.9185 3.49594Z" fill="black"/></svg>