<svg xmlns="http://www.w3.org/2000/svg" width="18" height="18" viewBox="0 0 20 20" fill="none" class="side-icon"><path fill-rule="evenodd" clip-rule="evenodd" d="M3.3 1.188a2.25 2.25 0 00-2.25 2.25v9.436c0 1.05.6 2.01 1.544 2.471l6.2 3.025a2.75 2.75 0 002.411 0l6.2-3.025a2.75 2.75 0 001.544-2.471V3.437a2.25 2.25 0 00-2.25-2.25H3.3zm6.877 4.647a.2.2 0 00-.354 0l-1 1.895a.2.2 0 01-.142.104l-2.112.365a.2.2 0 00-.109.337l1.493 1.536a.2.2 0 01.055.168l-.305 2.12a.2.2 0 00.286.209l1.923-.946a.2.2 0 01.176 0l1.923.946a.2.2 0 00.286-.208l-.305-2.121a.2.2 0 01.055-.168l1.493-1.536a.2.2 0 00-.11-.337l-2.11-.365a.2.2 0 01-.143-.104l-1-1.895z" fill="#FE3355"/></svg>