<svg xmlns="http://www.w3.org/2000/svg" width="18" height="18" viewBox="0 0 20 20" fill="none" class="side-icon"><path fill-rule="evenodd" clip-rule="evenodd" d="M3 1.188a1.95 1.95 0 00-1.95 1.95v9.736c0 1.05.6 2.01 1.544 2.471l6.2 3.025a2.75 2.75 0 002.411 0l6.2-3.025a2.75 2.75 0 001.544-2.471V3.137A1.95 1.95 0 0017 1.187H3zm-.45 1.95a.45.45 0 01.45-.45h14a.45.45 0 01.45.45v9.736c0 .477-.273.913-.702 1.123l-6.2 3.024a1.25 1.25 0 01-1.096 0l-6.2-3.024a1.25 1.25 0 01-.702-1.123V3.137zm7.627 3.197a.2.2 0 00-.354 0L8.976 7.94a.2.2 0 01-.143.104l-1.788.31a.2.2 0 00-.11.336L8.2 9.992a.2.2 0 01.055.167l-.259 1.797a.2.2 0 00.287.208l1.629-.8a.2.2 0 01.176 0l1.629.8a.2.2 0 00.286-.208l-.258-1.796a.2.2 0 01.054-.168l1.265-1.302a.2.2 0 00-.11-.336l-1.788-.31a.2.2 0 01-.142-.104l-.847-1.605z" fill="black"/></svg>