<svg xmlns="http://www.w3.org/2000/svg" width="18" height="18" viewBox="0 0 20 20" fill="none" class="side-icon"><path fill-rule="evenodd" clip-rule="evenodd" d="M6.753 5.412a3.35 3.35 0 0 1 6.486 0l.149.581.6-.018.105-.002a3.348 3.348 0 0 1 .924 6.567l-.543.156v4.152a.25.25 0 0 1-.25.25h-8.46a.25.25 0 0 1-.25-.25V12.695l-.543-.156a3.35 3.35 0 0 1 1.032-6.564l.6.018.15-.581ZM9.996 1.4a4.849 4.849 0 0 0-4.52 3.091 4.848 4.848 0 0 0-1.462 9.298v3.059c0 .966.783 1.75 1.75 1.75h8.46a1.75 1.75 0 0 0 1.75-1.75V13.79a4.849 4.849 0 0 0-1.459-9.3A4.849 4.849 0 0 0 9.995 1.4ZM8 12.67a.75.75 0 1 0 0 1.5h4a.75.75 0 0 0 0-1.5H8Z" fill="black"/></svg>