<svg width="180.000000" height="172.000015" viewBox="22 15 120 120" fill="none" xmlns="http://www.w3.org/2000/svg"><path d="M105.114 23.4496C108.613 23.4493 111.853 24.3656 114.834 26.1986C117.815 28.0315 120.095 30.5094 121.674 33.6323L133.458 34.0869L134.048 34.1074C135.351 34.1795 136.601 34.4725 137.8 34.9864C138.999 35.5003 140.074 36.204 141.025 37.0975C141.975 37.9911 142.744 39.0203 143.331 40.1854C143.918 41.3504 144.287 42.5807 144.44 43.8764L144.501 44.5727L144.517 45.1707L144.505 46.4404C144.182 70.1727 137.263 83.6157 123.755 85.676L123.132 86.4748C122.192 90.122 120.769 93.5699 118.863 96.8185C116.957 100.067 114.641 102.991 111.916 105.591C109.191 108.191 106.161 110.367 102.826 112.118C99.4918 113.869 95.9808 115.129 92.2934 115.896L91.1096 116.126L90.4707 116.224L90.4707 125.071L106.298 125.071C108.759 125.071 110.815 126.824 111.295 129.147L111.368 129.651L111.393 130.171C111.393 132.813 109.386 134.984 106.818 135.246L106.298 135.27L61.4628 135.27C60.8108 135.268 60.1824 135.145 59.5775 134.901C58.9727 134.658 58.4344 134.311 57.9626 133.861C57.4907 133.411 57.1189 132.89 56.847 132.297C56.5752 131.704 56.4226 131.083 56.3893 130.431C56.356 129.78 56.4443 129.146 56.6543 128.529C56.8643 127.911 57.181 127.355 57.6044 126.859C58.0279 126.363 58.528 125.963 59.1048 125.659C59.6816 125.356 60.2942 125.169 60.9426 125.1L61.4628 125.075L80.2757 125.071L80.2757 116.543L79.6818 116.49C75.7285 116.055 71.9229 115.057 68.2649 113.496C64.6069 111.935 61.2534 109.878 58.2043 107.325C55.1551 104.771 52.5411 101.831 50.3621 98.5036C48.1831 95.1765 46.5326 91.6051 45.4106 87.7896L45.0993 86.6673L44.9272 85.9832C30.4602 84.9715 22.6081 71.9176 22.219 48.0338L22.2067 46.5592L22.2067 45.0847C22.2171 43.7341 22.466 42.429 22.9537 41.1695C23.4413 39.91 24.1359 38.7775 25.0377 37.772C25.9395 36.7665 26.99 35.9531 28.1892 35.3318C29.3884 34.7105 30.6588 34.3215 32.0003 34.1647L32.6966 34.1074L33.2823 34.091L46.2134 34.0869C47.6428 31.2589 49.8811 28.494 52.4942 26.7015C55.1072 24.909 57.9903 23.8551 61.1433 23.5397L62.0444 23.4742L62.9578 23.4496L105.114 23.4496ZM87.9286 55.5L85.9286 53.5C84.919 53.5017 82.4405 58.8763 81.4957 59.2322C80.5509 59.5882 81.1883 63.3351 80.4286 64C79.6688 64.6649 72.8943 59.6584 72.4163 60.5476C71.9382 61.4369 71.6313 62.3817 71.4957 63.3822L69.7448 62.8793L67.9286 62L72.4162 64.1727L71.4957 70L72.9286 74C73.5849 76.6004 70.1799 74.6631 71.4957 77C72.8115 79.337 69.6127 80.0903 71.4957 82C73.3787 83.9097 70.6103 82.4311 72.9286 83.7796C75.2468 85.1281 71.3377 83.0868 73.9286 83.7796L75.4286 84.5L76.3026 84.5C78.1326 84.8612 77.8166 82.9588 79.6818 82.9768C81.547 82.9947 79.6591 83.3026 81.4957 82.9768C83.3323 82.6509 83.1834 83.6353 84.9286 82.9768C86.6737 82.3182 84.3346 81.9687 85.9286 81C83.7991 81 87.9286 82 92.2934 82.9768C93.6817 81.731 92.7935 84.4569 93.9286 82.9768C95.0637 81.4966 93.0855 83.6639 93.9286 82C94.7716 80.3361 95.4064 83.7907 95.9286 82L94.7244 77.5L99.7331 69.5C99.7336 68.4902 100.783 66.4457 100.429 65.5C100.075 64.5543 100.397 67.2613 99.7331 66.5C99.0697 65.7387 99.317 64.48 98.4286 64C97.5402 63.52 95.7248 60.6852 94.7244 60.5476L90.4286 58.5L87.9286 55.5ZM44.4398 44.2859L33.2823 44.2859C32.7006 44.2859 32.4071 44.5767 32.4017 45.1584C32.2665 64.2335 36.1659 74.0311 43.9729 75.604L44.5013 75.6941L44.4398 44.2859ZM133.43 44.2859L123.661 44.2859L123.661 75.1821C130.022 72.7245 133.884 63.7215 134.286 47.8167L134.327 45.2198C134.274 44.9298 133.691 44.4219 133.43 44.2859Z" fill-rule="evenodd" fill="#FE3355"/><path d="M84.0891 50.3521C85.4496 50.3398 86.7185 50.6749 87.8955 51.3574C89.0726 52.0399 89.9938 52.9745 90.6591 54.1614L90.9335 54.7185L92.5227 58.0977L96.0699 58.5974C98.4028 58.9165 100.185 60.0797 101.415 62.0872L101.751 62.6811L102.046 63.3119L102.251 63.8402C103.152 66.4617 102.578 69.333 100.842 71.3073L97.7411 74.5185L98.4087 78.4261C98.7159 80.6748 98.122 82.9317 96.799 84.566L96.332 85.0862L95.4801 85.803C94.4122 86.6575 93.1999 87.1716 91.8433 87.3454C90.4868 87.5192 89.1841 87.3273 87.9352 86.7697L87.3249 86.4625L84.1956 84.7667L81.0089 86.4952C80.4323 86.8012 79.8289 87.0387 79.1985 87.2079L78.5923 87.339L77.9697 87.4209L77.3471 87.4455C75.7947 87.4455 74.2505 86.9212 72.8128 85.9177C70.646 84.2301 69.5073 81.6169 69.7941 79.061L69.8965 78.422L70.5354 74.625L67.7911 71.7824C66.2165 70.1235 65.4888 68.1519 65.6079 65.8678L65.6694 65.1223L65.7841 64.4424L65.9315 63.8403C66.8408 61.1983 68.8684 59.306 71.4488 58.7203L72.1042 58.5974L75.6513 58.0977L77.3102 54.5956C78.3603 52.5218 80.0082 51.1851 82.2541 50.5856L82.889 50.4504L83.5443 50.3685L84.0891 50.3521ZM84.1014 57.557L80.6525 64.3973L73.1036 65.7326C73.0403 65.953 72.7686 66.4035 72.8701 66.6091L78.0393 72.0281L78.2031 72.5606L76.9784 79.7409L77.302 80.2447L83.9007 76.7262L84.4864 76.7262L90.8024 80.1505L91.2858 79.5197L90.0815 72.45L90.2454 71.9216L95.3121 66.6624C95.2302 66.4166 95.2712 65.8145 95.177 65.7654L87.9926 64.7413L84.1014 57.557Z" fill-rule="evenodd" fill="#FE3355"/></svg>