<svg xmlns="http://www.w3.org/2000/svg" width="18" height="18" viewBox="0 0 20 20" fill="none" class="side-icon"><path fill-rule="evenodd" clip-rule="evenodd" d="M17.762 2.48a.75.75 0 0 0-.936-.935l-4.34 1.316L8.764.268a.75.75 0 0 0-1.178.6l-.09 4.535L3.88 8.141a.75.75 0 0 0 .207 1.307l3.498 1.213-6.8 6.8a.75.75 0 0 0 1.061 1.06l6.8-6.8 1.213 3.498a.75.75 0 0 0 1.306.207l2.738-3.616 4.535-.09a.75.75 0 0 0 .6-1.178l-2.593-3.721 1.317-4.34Zm-5.189 1.922 3.346-1.015-1.015 3.346a.75.75 0 0 0 .103.647l1.999 2.869-3.496.069a.75.75 0 0 0-.583.297l-2.11 2.787L9.67 10.1a.75.75 0 0 0-.463-.463L5.904 8.49l2.788-2.11a.75.75 0 0 0 .297-.584l.069-3.495L11.927 4.3a.75.75 0 0 0 .646.102Z" fill="black"/></svg>