<svg xmlns="http://www.w3.org/2000/svg" width="18" height="18" viewBox="0 0 20 20" fill="none" class="side-icon"><path fill-rule="evenodd" clip-rule="evenodd" d="M8.78 1.784a1.4 1.4 0 0 1 2.44 0l2.273 4.033 4.538.916a1.4 1.4 0 0 1 .754 2.32L15.65 12.46l.532 4.599a1.4 1.4 0 0 1-1.973 1.434L10 16.567l-4.21 1.927a1.4 1.4 0 0 1-1.973-1.434l.531-4.599-3.133-3.408a1.4 1.4 0 0 1 .754-2.32l4.538-.916L8.78 1.784ZM10 2.88 7.856 6.683a1.4 1.4 0 0 1-.943.685l-4.28.863 2.955 3.215c.276.3.407.704.36 1.108l-.5 4.337 3.97-1.817a1.4 1.4 0 0 1 1.165 0l3.97 1.817-.502-4.337a1.4 1.4 0 0 1 .36-1.108l2.956-3.215-4.28-.863a1.4 1.4 0 0 1-.943-.685L10 2.879Z" fill="black"/></svg>