<svg xmlns="http://www.w3.org/2000/svg" width="18" height="18" viewBox="0 0 20 20" fill="none" class="side-icon"><path fill-rule="evenodd" clip-rule="evenodd" d="M11.022 1.623a1.95 1.95 0 0 0-2.044 0L2.434 5.651a2.75 2.75 0 0 0-1.309 2.342V16a2.25 2.25 0 0 0 2.25 2.25h13.25a2.25 2.25 0 0 0 2.25-2.25V7.993a2.75 2.75 0 0 0-1.309-2.343l-6.544-4.027ZM9.764 2.901a.45.45 0 0 1 .472 0l6.544 4.027c.37.227.595.63.595 1.065V16a.75.75 0 0 1-.75.75H3.375a.75.75 0 0 1-.75-.75V7.993c0-.435.225-.838.595-1.065l6.544-4.027Z" fill="black"/></svg>