<svg xmlns="http://www.w3.org/2000/svg" width="18" height="18" viewBox="0 0 20 20" fill="none" class="side-icon"><path fill-rule="evenodd" clip-rule="evenodd" d="M6.288 4.395a6.75 6.75 0 118.146 10.62L5.212 5.795a6.76 6.76 0 011.076-1.4zM4.578 7.28a6.765 6.765 0 00.608 5.215.75.75 0 01-.122.9l-1.782 1.782 1.768 1.768 1.782-1.782a.75.75 0 01.9-.122 6.765 6.765 0 005.215.608L4.578 7.28zm12.316-3.947a8.25 8.25 0 00-13.28 9.39l-1.923 1.924a.75.75 0 000 1.06l2.829 2.829a.75.75 0 001.06 0l1.924-1.923a8.25 8.25 0 009.39-13.28z" fill="black"/></svg>